# xmcd
#
# Track frame offsets:
#	150
#	18854
#	33303
#	51302
#	66471
#	85569
#	103247
#	121359
#	140233
#	158390
#	175475
#	191431
#	206783
#	226583
#	243527
#	260354
#	280532
#	298933
#
# Disc length: 4211 seconds
#
# Revision: 0
# Processed by: cddbd v1.5.2PL0 Copyright (c) Steve Scherf et al.
# Submitted via: EZCDAudioConverter 2.7.0.1
#
DISCID=03107112
DTITLE=터보(Turbo) - REBOOT - THE BEST
DYEAR=2015
DGENRE=팝/댄스
TTITLE0=나 어릴 적 꿈
TTITLE1=검은 고양이
TTITLE2=선택
TTITLE3=소유할 수 없는 사랑
TTITLE4=죄와 벌
TTITLE5=Love Is... (3+3=0)
TTITLE6=Twist King
TTITLE7=어느 째즈바...
TTITLE8=상처
TTITLE9=노스트라다무스 (사랑의 예언)
TTITLE10=바람의 철학 (바람부는 날)
TTITLE11=White Love '스키장에서...'
TTITLE12=회상 (December)
TTITLE13=Good Bye Yesterday
TTITLE14=금지된 장난
TTITLE15=Always
TTITLE16=러브 송 (Hi Energy Style)
TTITLE17=Only Seventeen
EXTD=
EXTT0=
EXTT1=
EXTT2=
EXTT3=
EXTT4=
EXTT5=
EXTT6=
EXTT7=
EXTT8=
EXTT9=
EXTT10=
EXTT11=
EXTT12=
EXTT13=
EXTT14=
EXTT15=
EXTT16=
EXTT17=
PLAYORDER=
